<svg width="50" height="50" fill="none" xmlns="http://www.w3.org/2000/svg"><path fill="#F7654A" d="M0 0h50v50H0z"/><path d="M34.571 31.429a.863.863 0 00-.857-.858H14.857a.863.863 0 00-.857.858v1.714c0 .469.388.857.857.857h18.857a.863.863 0 00.857-.857v-1.714zm0-6.858a.863.863 0 00-.857-.857H14.857a.863.863 0 00-.857.857v1.715c0 .468.388.857.857.857h18.857a.863.863 0 00.857-.857V24.57zm0-6.857a.863.863 0 00-.857-.857H14.857a.863.863 0 00-.857.857v1.715c0 .468.388.857.857.857h18.857a.863.863 0 00.857-.857v-1.715z" fill="#fff"/></svg>